<svg id="Layer_1" height="512" viewBox="0 0 128 128" width="512" xmlns="http://www.w3.org/2000/svg" data-name="Layer 1"><path d="m116.118 21.192-12.31 100.308h-79.616l-12.31-100.308z" fill="#e1ebf0"/><path d="m6.5 18.192h115v9h-115z" fill="#e97b83"/><path d="m80.904 47.75h6v50.192h-6z" fill="#e97b83"/><path d="m61 47.75h6v50.192h-6z" fill="#e97b83"/><path d="m41.096 47.75h6v50.192h-6z" fill="#e97b83"/><g fill="#3c4176"><path d="m47 27.192a1.75 1.75 0 0 0 -1.75-1.75h-6a1.75 1.75 0 0 0 0 3.5h6a1.749 1.749 0 0 0 1.75-1.75z"/><path d="m121.5 16.442h-35.85v-9.942a1.75 1.75 0 0 0 -1.75-1.75h-39.8a1.75 1.75 0 0 0 -1.75 1.75v9.942h-35.85a1.75 1.75 0 0 0 -1.75 1.75v9a1.749 1.749 0 0 0 1.75 1.75h4.572l11.381 92.771a1.752 1.752 0 0 0 1.737 1.537h79.62a1.752 1.752 0 0 0 1.737-1.537l10.381-84.613a1.751 1.751 0 0 0 -3.475-.426l-10.192 83.076h-76.522l-11.139-90.808h15.587a1.75 1.75 0 1 0 0-3.5h-21.937v-5.5h111.5v5.5h-66.25a1.75 1.75 0 0 0 0 3.5h68a1.749 1.749 0 0 0 1.75-1.75v-9a1.75 1.75 0 0 0 -1.75-1.75zm-75.65-8.192h36.3v8.192h-36.3z"/><path d="m80.9 46a1.75 1.75 0 0 0 -1.75 1.75v50.192a1.749 1.749 0 0 0 1.75 1.75h6a1.749 1.749 0 0 0 1.75-1.75v-50.192a1.75 1.75 0 0 0 -1.75-1.75zm4.25 50.192h-2.5v-46.692h2.5z"/><path d="m61 46a1.75 1.75 0 0 0 -1.75 1.75v50.192a1.749 1.749 0 0 0 1.75 1.75h6a1.749 1.749 0 0 0 1.75-1.75v-50.192a1.75 1.75 0 0 0 -1.75-1.75zm4.25 50.192h-2.5v-46.692h2.5z"/><path d="m41.1 99.692h6a1.75 1.75 0 0 0 1.75-1.75v-50.192a1.751 1.751 0 0 0 -1.75-1.75h-6a1.75 1.75 0 0 0 -1.75 1.75v50.192a1.749 1.749 0 0 0 1.75 1.75zm1.746-50.192h2.5v46.692h-2.5z"/></g></svg>